<?xml version="1.0" standalone="no"?>
<!DOCTYPE svg PUBLIC "-//W3C//DTD SVG 20010904//EN"
 "http://www.w3.org/TR/2001/REC-SVG-20010904/DTD/svg10.dtd">
<svg version="1.0" xmlns="http://www.w3.org/2000/svg"
 width="320.000000pt" height="320.000000pt" viewBox="0 0 320.000000 320.000000"
 preserveAspectRatio="xMidYMid meet">
<metadata>
Created by potrace 1.11, written by Peter Selinger 2001-2013
</metadata>
<g transform="translate(0.000000,320.000000) scale(0.100000,-0.100000)"
fill="#000000" stroke="none">
<path d="M2111 2943 c-29 -46 -30 -48 -10 -51 13 -2 33 7 50 24 l29 28 29 -28
c17 -17 37 -26 50 -24 20 3 19 5 -10 51 -28 42 -35 47 -69 47 -34 0 -41 -5
-69 -47z"/>
<path d="M800 2930 l0 -40 50 0 50 0 0 40 0 40 -50 0 -50 0 0 -40z"/>
<path d="M370 2745 l0 -205 118 0 c149 0 194 17 213 78 14 49 6 86 -27 119
l-25 25 20 22 c25 27 28 82 5 115 -28 39 -73 51 -194 51 l-110 0 0 -205z m198
123 c7 -7 12 -21 12 -33 0 -31 -19 -45 -62 -45 l-38 0 0 45 0 45 38 0 c21 0
43 -5 50 -12z m16 -164 c9 -8 16 -26 16 -39 0 -36 -26 -55 -76 -55 l-44 0 0
55 0 55 44 0 c27 0 51 -6 60 -16z"/>
<path d="M1770 2890 c0 -33 -3 -40 -20 -40 -16 0 -20 -7 -20 -35 0 -28 4 -35
20 -35 18 0 20 -7 20 -62 1 -145 25 -178 131 -178 l69 0 0 34 c0 34 -1 35 -42
38 l-43 3 -3 83 -3 82 51 0 50 0 0 35 0 35 -50 0 -50 0 0 40 0 40 -55 0 -55 0
0 -40z"/>
<path d="M2420 2890 c0 -33 -3 -40 -20 -40 -16 0 -20 -7 -20 -35 0 -28 4 -35
20 -35 18 0 20 -7 20 -62 1 -145 25 -178 131 -178 l69 0 0 34 c0 34 -1 35 -42
38 l-43 3 -3 83 -3 82 51 0 50 0 0 35 0 35 -50 0 -50 0 0 40 0 40 -55 0 -55 0
0 -40z"/>
<path d="M1055 2846 c-127 -55 -121 -257 8 -305 36 -14 131 -14 180 0 34 9 37
13 37 48 l0 38 -52 -18 c-29 -10 -65 -18 -79 -19 -33 0 -79 35 -79 61 0 18 8
19 110 19 l110 0 0 44 c0 109 -126 180 -235 132z m115 -66 c37 -37 26 -50 -40
-50 -47 0 -60 3 -60 15 0 22 37 55 60 55 11 0 29 -9 40 -20z"/>
<path d="M1520 2853 c-8 -3 -23 -12 -32 -21 -16 -14 -18 -13 -18 1 0 14 -10
17 -50 17 l-50 0 0 -155 0 -155 50 0 50 0 0 100 c0 87 3 103 20 120 24 24 53
26 70 5 7 -8 14 -59 18 -120 l5 -105 48 0 49 0 0 98 c-1 121 -12 171 -45 200
-25 21 -78 28 -115 15z"/>
<path d="M2105 2846 c-137 -59 -115 -285 30 -312 133 -25 222 49 213 175 -5
67 -31 111 -82 135 -41 19 -119 20 -161 2z m116 -75 c19 -16 23 -28 23 -76 0
-48 -4 -60 -23 -76 -54 -44 -101 -8 -101 76 0 84 47 120 101 76z"/>
<path d="M800 2695 l0 -155 50 0 50 0 0 155 0 155 -50 0 -50 0 0 -155z"/>
<path d="M1370 2095 l0 -215 50 0 50 0 0 215 0 215 -50 0 -50 0 0 -215z"/>
<path d="M1595 2191 c-26 -5 -30 -11 -33 -43 l-3 -36 43 15 c48 16 116 12 129
-9 23 -36 11 -46 -61 -50 -80 -4 -120 -27 -133 -75 -12 -39 14 -96 49 -112 40
-18 98 -13 128 10 21 17 26 18 26 5 0 -13 12 -16 56 -16 l57 0 -5 113 c-6 131
-21 171 -73 193 -35 14 -125 17 -180 5z m145 -205 c0 -26 -33 -56 -62 -56 -17
0 -48 25 -48 40 0 21 34 40 71 40 35 0 39 -3 39 -24z"/>
<path d="M844 1749 c-135 -22 -262 -89 -369 -194 -240 -236 -282 -590 -104
-893 43 -73 178 -207 251 -250 262 -154 632 -117 858 86 31 27 68 72 83 100
l27 51 -162 97 c-102 62 -163 93 -166 85 -13 -38 -74 -99 -127 -126 -52 -27
-68 -30 -149 -30 -82 0 -96 3 -144 30 -127 70 -195 226 -172 393 24 176 122
286 272 308 70 9 171 -13 226 -50 41 -27 56 -44 97 -109 8 -14 31 -1 150 84
77 54 144 105 149 113 6 9 -1 27 -22 58 -79 115 -234 213 -384 243 -82 16
-230 18 -314 4z"/>
<path d="M1595 1713 c8 -21 127 -339 264 -708 l249 -670 168 0 168 0 258 700
c142 385 258 703 258 708 0 4 -93 7 -207 7 l-208 0 -119 -408 c-66 -224 -127
-428 -135 -455 l-16 -47 -136 452 -135 453 -212 3 -212 2 15 -37z"/>
<path d="M2810 731 c-21 -6 -25 -13 -28 -54 l-3 -47 43 20 c50 23 79 25 96 8
22 -22 12 -54 -33 -100 -30 -31 -45 -55 -45 -72 0 -24 3 -26 50 -26 34 0 50 4
50 13 0 7 16 29 36 48 84 80 86 162 4 204 -30 15 -124 19 -170 6z"/>
<path d="M2840 370 l0 -50 50 0 50 0 0 50 0 50 -50 0 -50 0 0 -50z"/>
</g>
</svg>
